<svg width="35" height="35" viewBox="0 0 35 35" fill="none" xmlns="http://www.w3.org/2000/svg">
<path d="M21.875 24.7917H29.1667L27.1178 22.7428C26.5622 22.1872 26.25 21.4335 26.25 20.6477V16.0417C26.25 12.2319 23.8152 8.99075 20.4167 7.78956V7.29167C20.4167 5.68084 19.1109 4.375 17.5 4.375C15.8892 4.375 14.5834 5.68084 14.5834 7.29167V7.78956C11.1849 8.99075 8.75004 12.2319 8.75004 16.0417V20.6477C8.75004 21.4335 8.43788 22.1872 7.88223 22.7428L5.83337 24.7917H13.125M21.875 24.7917V26.25C21.875 28.6662 19.9163 30.625 17.5 30.625C15.0838 30.625 13.125 28.6662 13.125 26.25V24.7917M21.875 24.7917H13.125" stroke="black" stroke-width="2" stroke-linecap="round" stroke-linejoin="round"/>
</svg>
